<svg width="524" height="467" viewBox="0 0 524 467" fill="none" xmlns="http://www.w3.org/2000/svg">
<g clip-path="url(#clip0_1_37252)">
<path d="M60.1018 467L59.6458 466.831C44.1984 461.001 32.0959 448.667 26.5536 433.106C25.0519 428.782 24.1004 424.285 23.7216 419.723L23.6844 419.287L24.1141 419.364C29.2442 420.286 34.6296 420.795 37.0291 420.994L23.5674 412.081L23.5917 411.618C23.8013 407.267 26.6357 403.481 30.7502 402.057C34.9038 400.522 39.5729 401.67 42.5426 404.956C43.8809 406.409 45.2958 407.872 46.6639 409.288C51.3657 414.15 56.2275 419.177 59.3018 425.112C63.9253 434.257 64.1762 445.002 59.9848 454.353L60.1018 467Z" fill="#F2F2F2"/>
<path d="M332.481 458.363L332.476 458.315C331.88 445.096 329.456 432.022 325.272 419.469L325.268 419.448C325.024 418.159 325.095 416.83 325.475 415.574C326.643 411.974 330.267 409.77 333.999 410.39C337.853 411.115 341.84 410.434 345.236 408.471C347.393 407.219 350.01 407.045 352.313 408.002C354.484 408.888 356.109 410.749 356.692 413.022C356.738 413.2 356.778 413.381 356.812 413.564C356.935 426.846 359.373 440.005 364.017 452.448L364.02 452.464C364.506 455.033 363.731 457.68 361.936 459.581C360.349 461.192 358.126 462.009 355.874 461.809C351.832 461.533 347.675 462.354 343.165 464.318C341.589 465.02 339.818 465.144 338.16 464.67C335.228 463.81 333.031 461.37 332.481 458.363Z" fill="#005555"/>
<path d="M203.265 276.767V450.366H324.813V276.767C324.817 274.204 323.149 271.938 320.702 271.181C320.14 270.995 319.551 270.904 318.959 270.91H209.135C205.899 270.904 203.271 273.523 203.265 276.761V276.767ZM250.7 336.416C250.766 329.246 256.628 323.487 263.794 323.553C270.867 323.618 276.585 329.339 276.65 336.416V356.559C276.616 363.729 270.78 369.514 263.614 369.48C256.495 369.446 250.733 363.681 250.7 356.559V336.416Z" fill="#F2F2F2"/>
<path d="M202.893 444.814V461.555C202.898 463.359 204.354 464.823 206.158 464.838H321.92C323.726 464.829 325.185 463.362 325.185 461.555V444.814H202.893Z" fill="#E6E6E6"/>
<path d="M12.0527 15.2171V332.184C12.0594 340.595 18.8721 347.412 27.278 347.418H496.722C505.128 347.412 511.941 340.595 511.947 332.184V15.2171C511.927 6.81463 505.12 0.0106588 496.722 0H27.278C18.8803 0.0107007 12.0727 6.81465 12.0527 15.2171Z" fill="#E6E6E6"/>
<path d="M492.805 11.002H31.1936C26.6971 11.0117 23.057 14.6615 23.0566 19.1606V328.274C23.0644 332.767 26.7029 336.408 31.1936 336.416H492.805C497.296 336.408 500.935 332.767 500.942 328.274V19.1606C500.942 14.6615 497.302 11.0118 492.805 11.002ZM376.362 230.613C374.982 233.341 372.184 235.057 369.129 235.05L369.081 235.047C364.655 234.43 360.214 234.023 355.756 233.826C356.448 234.322 357.057 234.925 357.56 235.612C358.854 237.467 359.252 239.803 358.644 241.982C357.636 245.908 357.684 250.148 358.791 254.943C359.193 256.621 358.992 258.386 358.224 259.93C356.844 262.658 354.046 264.374 350.991 264.367L350.942 264.364C340.374 262.891 329.675 262.606 319.043 263.513C319.001 263.782 318.948 264.05 318.879 264.319C317.871 268.245 317.919 272.485 319.027 277.28C319.428 278.957 319.228 280.723 318.459 282.267C317.079 284.995 314.281 286.711 311.226 286.704L311.178 286.701C300.324 285.189 289.333 284.93 278.42 285.929C278.338 288.655 278.621 291.381 279.262 294.033C279.664 295.71 279.463 297.476 278.694 299.02C277.315 301.747 274.516 303.464 271.461 303.457L271.413 303.453C258.314 301.627 245.025 301.627 231.926 303.453H231.905C230.594 303.458 229.301 303.146 228.136 302.543C224.812 300.737 223.307 296.77 224.597 293.212C224.993 292.092 225.287 290.938 225.476 289.765C213.471 288.381 201.34 288.524 189.371 290.191H189.35C188.039 290.196 186.745 289.883 185.58 289.281C182.256 287.474 180.752 283.507 182.042 279.949C183.457 276.289 183.515 272.243 182.205 268.544C181.588 266.81 181.588 264.915 182.205 263.18C173.182 262.72 164.136 263.117 155.187 264.364H155.166C153.855 264.369 152.562 264.057 151.397 263.454C148.073 261.647 146.568 257.68 147.858 254.122C149.274 250.462 149.332 246.416 148.022 242.717C147.185 240.367 147.492 237.761 148.852 235.67C150.119 233.695 152.244 232.437 154.584 232.277C154.768 232.264 154.952 232.258 155.139 232.258C159.724 233.06 164.353 233.583 169 233.825C166.035 231.875 164.793 228.145 165.997 224.805C167.412 221.145 167.47 217.099 166.16 213.4C165.323 211.05 165.63 208.444 166.991 206.353C167.049 206.263 167.118 206.183 167.18 206.096C163.872 206.324 160.572 206.667 157.28 207.126H157.259C155.948 207.131 154.655 206.818 153.49 206.216C150.166 204.409 148.661 200.442 149.951 196.884C151.367 193.224 151.424 189.178 150.115 185.479C149.278 183.129 149.585 180.523 150.945 178.432C152.212 176.457 154.337 175.199 156.677 175.039C156.861 175.026 157.045 175.02 157.232 175.02C162.745 175.986 168.32 176.547 173.915 176.7C172.488 174.642 172.137 172.023 172.973 169.661C174.388 166.001 174.446 161.955 173.136 158.256C172.3 155.906 172.607 153.3 173.967 151.209C175.233 149.234 177.359 147.976 179.698 147.816C179.882 147.803 180.067 147.797 180.254 147.797C184.919 148.613 189.63 149.141 194.36 149.377C193.343 147.452 193.177 145.189 193.902 143.136C195.317 139.476 195.375 135.43 194.065 131.731C193.228 129.381 193.536 126.775 194.896 124.684C196.162 122.709 198.288 121.451 200.627 121.291C200.811 121.278 200.996 121.272 201.182 121.272C206.672 122.233 212.224 122.794 217.794 122.95C217.036 121.157 216.974 119.145 217.621 117.309C219.036 113.649 219.094 109.603 217.784 105.904C216.948 103.554 217.255 100.948 218.615 98.8567C219.881 96.882 222.007 95.6236 224.346 95.4637C224.53 95.4514 224.715 95.4449 224.902 95.4449C237.976 97.7474 251.351 97.7491 264.425 95.45H264.442C265.451 95.6581 266.491 95.6581 267.5 95.45H267.517C280.591 97.7491 293.966 97.7474 307.04 95.4449C307.227 95.4449 307.412 95.4514 307.596 95.4637C309.935 95.6236 312.061 96.882 313.327 98.8567C314.687 100.948 314.994 103.554 314.158 105.904C312.848 109.603 312.906 113.649 314.321 117.309C314.968 119.145 314.906 121.157 314.148 122.95C319.718 122.794 325.27 122.233 330.76 121.272C330.946 121.272 331.131 121.278 331.315 121.291C333.654 121.451 335.78 122.709 337.046 124.684C338.406 126.775 338.714 129.381 337.877 131.731C336.567 135.43 336.625 139.476 338.04 143.136C338.765 145.189 338.599 147.452 337.582 149.377C342.312 149.141 347.023 148.613 351.688 147.797C351.875 147.797 352.06 147.803 352.244 147.816C354.583 147.976 356.709 149.234 357.975 151.209C359.335 153.3 359.642 155.906 358.806 158.256C357.496 161.955 357.554 166.001 358.969 169.661C359.807 172.029 359.453 174.655 358.017 176.715C358.64 177.186 359.191 177.745 359.653 178.374C360.947 180.229 361.345 182.565 360.737 184.744C359.729 188.67 359.776 192.91 360.884 197.705C361.286 199.383 361.085 201.148 360.317 202.692C360.036 203.242 359.693 203.758 359.296 204.231C362.562 203.944 365.82 203.516 369.069 202.946H369.085C371.699 202.937 374.158 204.182 375.699 206.295C376.992 208.15 377.39 210.486 376.783 212.665C375.774 216.591 375.822 220.831 376.93 225.626C377.332 227.304 377.131 229.069 376.362 230.613Z" fill="white"/>
<path d="M477.833 53.5838H45.9049C44.9562 53.5629 44.2041 52.7764 44.225 51.8273C44.2453 50.9075 44.9856 50.1667 45.9049 50.1465H477.833C478.782 50.1674 479.534 50.9538 479.513 51.903C479.493 52.8227 478.752 53.5635 477.833 53.5838Z" fill="#E6E6E6"/>
<path d="M267.087 295.223L267.039 295.219C253.94 293.393 240.651 293.393 227.552 295.219H227.531C226.22 295.224 224.926 294.912 223.762 294.309C220.437 292.503 218.933 288.536 220.223 284.978C221.638 281.318 221.696 277.272 220.387 273.573C219.55 271.223 219.857 268.616 221.217 266.525C222.483 264.551 224.609 263.292 226.949 263.132C227.133 263.12 227.317 263.114 227.504 263.114C240.578 265.416 253.953 265.418 267.027 263.119H267.044C269.657 263.11 272.117 264.355 273.657 266.468C274.951 268.323 275.348 270.659 274.741 272.838C273.732 276.764 273.78 281.004 274.888 285.799C275.29 287.476 275.089 289.242 274.32 290.786C272.941 293.514 270.142 295.23 267.087 295.223Z" fill="#005555"/>
<path d="M307.37 226.784L296.832 218.058C288.93 222.203 276.905 238.749 276.905 238.749L249.165 258.711C245.833 258.87 243.261 261.701 243.42 265.034C243.579 268.368 246.408 270.941 249.739 270.782C251.901 270.679 253.843 269.427 254.829 267.499L292.52 247.57L307.37 226.784Z" fill="#FFB8B8"/>
<path d="M325.15 193.574C331.232 198.728 331.987 207.84 326.836 213.925C326.259 214.607 325.62 215.234 324.927 215.798L318.225 221.249C318.225 221.249 301.51 245.326 292.809 248.119L270.471 259.796L260.399 249.691L280.644 233.184C280.644 233.184 289.955 224.372 290.887 217.921C291.458 213.97 298.14 203.209 304.838 195.227C309.979 189.16 319.062 188.411 325.127 193.554L325.15 193.574Z" fill="#3F3D56"/>
<path d="M303.493 454.884L293.972 454.883L289.443 418.139L303.495 418.14L303.493 454.884Z" fill="#FFB6B6"/>
<path d="M303.828 464.821L274.551 464.82V464.45C274.551 458.153 279.653 453.048 285.946 453.048L291.295 448.988L301.273 453.048L303.828 453.048L303.828 464.821Z" fill="#2F2E41"/>
<path d="M376.035 404.744L371.526 413.134L337.037 399.726L343.692 387.343L376.035 404.744Z" fill="#FFB6B6"/>
<path d="M384.941 409.154L371.076 434.955L370.75 434.78C365.207 431.798 363.13 424.884 366.11 419.338L366.11 419.337L365.069 412.702L373.368 405.831L374.578 403.579L384.941 409.154Z" fill="#2F2E41"/>
<path d="M285.493 286.616L277.09 353.878L281.291 376.428L356.917 409.579L361.119 395.916C341.788 384.081 321.123 366.169 308.102 364.852C308.102 364.852 307.022 352.915 316.35 345.549C318.232 344.063 317.821 342.052 318.582 340.229C319.105 338.976 321.187 337.671 321.72 336.384C322.412 334.718 321.556 333.062 322.251 331.369C322.642 330.417 324.123 330.357 324.511 329.404C325.173 327.779 324.74 325.262 325.385 323.656C326.764 320.225 328.09 316.869 329.3 313.723C333.068 303.932 335.72 296.174 335.385 294.499C334.334 289.244 285.493 286.616 285.493 286.616Z" fill="#2F2E41"/>
<path d="M284.045 353.683L279.649 382.088L290.745 440.057H305.45C310.733 420.579 311.005 394.979 305.975 373.321L284.045 353.683Z" fill="#2F2E41"/>
<path d="M293.493 204.437L300.272 192.617L307.55 186.775L321.205 184.673L324.998 187.592C338.651 208.47 343.742 233.807 339.215 258.343L338.149 264.118L337.473 267.784L337.766 272.166L335.487 278.545L335.8 283.217L335.968 285.712L336.136 288.216L336.37 291.711C336.79 293.705 334.676 293.442 334.975 295.201C335.5 298.289 337.855 302.864 334.277 302.879L297.303 295.201C287.91 295.24 279.165 284.032 288.234 274.958L293.493 204.437Z" fill="#3F3D56"/>
<path d="M310.8 181.381C320.716 181.381 328.755 173.338 328.755 163.416C328.755 153.494 320.716 145.451 310.8 145.451C300.884 145.451 292.846 153.494 292.846 163.416C292.846 173.338 300.884 181.381 310.8 181.381Z" fill="#FFB8B8"/>
<path d="M311.104 180.871C313.731 180.912 316.357 180.728 318.953 180.322C321.526 179.798 327.282 175.578 328.887 173.038C330.079 171.151 330.841 168.204 331.271 166.065C332.441 160.339 331.13 154.385 327.664 149.682C327.005 148.709 326.096 147.933 325.032 147.434C324.938 147.397 324.84 147.365 324.742 147.337C323.192 146.929 321.8 146.066 320.743 144.861C320.538 144.617 320.316 144.388 320.078 144.176C318.884 143.168 317.468 142.456 315.947 142.1C313.49 141.443 309.936 142.095 305.382 144.043C303.094 145.021 300.592 144.667 298.667 144.249C298.447 144.207 298.222 144.284 298.074 144.452C297.255 145.222 296.175 145.652 295.052 145.658C294.364 145.688 293.642 146.641 292.77 147.884C292.572 148.166 292.341 148.495 292.174 148.696L292.152 148.311L291.763 148.74C289.761 150.948 289.927 154.362 292.133 156.366C292.727 156.904 293.432 157.304 294.199 157.535C294.891 157.72 295.6 157.833 296.315 157.873C296.748 157.912 297.196 157.952 297.625 158.027C300.428 158.601 302.724 160.607 303.67 163.308C304.067 164.415 305.284 164.99 306.39 164.594C306.564 164.531 306.729 164.447 306.881 164.342C307.789 163.634 308.985 163.416 310.084 163.758C310.551 164.018 310.915 164.432 311.115 164.929C311.357 165.482 311.759 165.951 312.269 166.276C314.012 167.175 314.132 171.16 313.506 174.482C312.903 177.684 311.709 180 310.605 180.114C309.754 180.202 309.657 180.263 309.595 180.413L309.54 180.548L309.636 180.674C310.105 180.844 310.606 180.911 311.104 180.871Z" fill="#2F2E41"/>
<path d="M274.762 170.276L274.714 170.273C261.615 168.447 248.326 168.447 235.227 170.273H235.206C233.894 170.278 232.601 169.966 231.436 169.363C228.112 167.557 226.608 163.59 227.898 160.032C229.313 156.372 229.371 152.325 228.061 148.626C227.225 146.276 227.532 143.67 228.892 141.579C230.158 139.604 232.284 138.346 234.623 138.186C234.807 138.174 234.992 138.167 235.179 138.167C248.252 140.47 261.628 140.471 274.702 138.172H274.718C277.332 138.163 279.791 139.409 281.332 141.521C282.625 143.376 283.023 145.712 282.416 147.891C281.407 151.817 281.455 156.057 282.563 160.852C282.965 162.53 282.764 164.295 281.995 165.84C280.616 168.567 277.817 170.284 274.762 170.276Z" fill="#005555"/>
<path d="M291.551 212.588L298.981 201.096C293.943 193.728 276.115 183.712 276.115 183.712L253.059 158.479C252.512 155.187 249.401 152.962 246.111 153.509C242.821 154.056 240.597 157.169 241.144 160.461C241.499 162.597 242.97 164.38 244.998 165.134L269.184 200.259L291.551 212.588Z" fill="#FFB8B8"/>
<path d="M326.592 226.374C322.187 233.021 313.231 234.835 306.589 230.428C305.844 229.934 305.147 229.372 304.507 228.749L298.313 222.727C298.313 222.727 272.351 209.163 268.562 200.843L251.551 176.701L262.957 166.405L282.782 184.438C282.782 184.438 291.91 194.999 298.422 195.172C302.41 195.278 313.872 200.66 322.577 206.383C329.201 210.783 331.006 219.722 326.609 226.349L326.592 226.374Z" fill="#3F3D56"/>
<path d="M153.644 464.717L153.596 464.713C140.497 462.887 127.208 462.887 114.109 464.713H114.088C112.776 464.718 111.483 464.406 110.318 463.803C106.994 461.997 105.49 458.03 106.78 454.472C108.195 450.812 108.253 446.766 106.943 443.067C106.106 440.716 106.414 438.11 107.774 436.019C109.04 434.044 111.166 432.786 113.505 432.626C113.689 432.614 113.874 432.607 114.06 432.607C127.134 434.91 140.509 434.912 153.584 432.613H153.6C156.214 432.603 158.673 433.849 160.213 435.962C161.507 437.816 161.905 440.153 161.297 442.331C160.289 446.258 160.337 450.497 161.445 455.293C161.846 456.97 161.645 458.736 160.877 460.28C159.497 463.007 156.699 464.724 153.644 464.717Z" fill="#005555"/>
<path d="M164.806 435.4L164.758 435.396C151.659 433.57 138.37 433.57 125.271 435.396H125.25C123.938 435.401 122.645 435.089 121.48 434.486C118.156 432.68 116.652 428.713 117.942 425.155C119.357 421.495 119.415 417.449 118.105 413.75C117.269 411.399 117.576 408.793 118.936 406.702C120.202 404.727 122.328 403.469 124.667 403.309C124.851 403.297 125.036 403.29 125.223 403.29C138.296 405.593 151.672 405.595 164.746 403.296H164.762C167.376 403.286 169.835 404.532 171.376 406.645C172.669 408.499 173.067 410.836 172.459 413.014C171.451 416.941 171.499 421.18 172.607 425.976C173.008 427.653 172.808 429.419 172.039 430.963C170.659 433.69 167.861 435.407 164.806 435.4Z" fill="#005555"/>
<path d="M67.1297 443.392L67.1596 443.353C76.0109 433.521 83.4569 422.508 89.2848 410.629L89.2967 410.611C90.0274 409.522 91.0105 408.625 92.1621 407.997C95.52 406.255 99.6467 407.231 101.869 410.293C104.106 413.517 107.423 415.832 111.219 416.819C113.633 417.443 115.619 419.158 116.588 421.456C117.513 423.612 117.363 426.079 116.185 428.108C116.092 428.267 115.994 428.424 115.889 428.578C106.658 438.123 99.1617 449.207 93.739 461.331L93.7299 461.344C92.2731 463.515 89.864 464.856 87.2521 464.948C84.9917 464.981 82.8349 464.002 81.3718 462.277C78.6865 459.242 75.1502 456.906 70.5601 455.137C68.9462 454.53 67.5972 453.374 66.7495 451.872C65.2647 449.2 65.4118 445.92 67.1297 443.392Z" fill="#005555"/>
<path d="M523.174 465.781L0.826322 465.996C0.36757 465.993 -0.00238822 465.619 1.16096e-05 465.16C0.00238354 464.705 0.370953 464.336 0.826322 464.334L523.174 464.119C523.632 464.121 524.002 464.495 524 464.954C523.998 465.41 523.629 465.779 523.174 465.781Z" fill="#CACACA"/>
<path d="M111.796 37.6295C115.054 37.6295 117.696 34.9278 117.696 31.595C117.696 28.2623 115.054 25.5605 111.796 25.5605C108.538 25.5605 105.896 28.2623 105.896 31.595C105.896 34.9278 108.538 37.6295 111.796 37.6295Z" fill="#3F3D56"/>
<path d="M132.176 37.6295C135.434 37.6295 138.075 34.9278 138.075 31.595C138.075 28.2623 135.434 25.5605 132.176 25.5605C128.918 25.5605 126.276 28.2623 126.276 31.595C126.276 34.9278 128.918 37.6295 132.176 37.6295Z" fill="#F9C332"/>
<path d="M152.557 37.6295C155.815 37.6295 158.456 34.9278 158.456 31.595C158.456 28.2623 155.815 25.5605 152.557 25.5605C149.299 25.5605 146.657 28.2623 146.657 31.595C146.657 34.9278 149.299 37.6295 152.557 37.6295Z" fill="#3F3D56"/>
<path d="M175.796 36.3645C175.614 36.3645 175.433 36.2943 175.297 36.1545L171.316 32.0829C171.051 31.8116 171.051 31.3781 171.316 31.1068L175.297 27.0355C175.567 26.7601 176.009 26.7557 176.283 27.0246C176.559 27.2942 176.564 27.7363 176.294 28.0117L172.791 31.5949L176.294 35.1784C176.564 35.4538 176.559 35.8958 176.283 36.1654C176.148 36.2983 175.972 36.3645 175.796 36.3645Z" fill="#3F3D56"/>
<path d="M182.485 36.3645C182.309 36.3645 182.133 36.2984 181.997 36.1654C181.721 35.8958 181.717 35.4541 181.986 35.1784L185.489 31.5949L181.986 28.0117C181.717 27.7363 181.721 27.2943 181.997 27.0247C182.272 26.7547 182.714 26.7598 182.983 27.0356L186.964 31.1068C187.229 31.3781 187.229 31.8117 186.964 32.083L182.983 36.1545C182.847 36.2943 182.666 36.3645 182.485 36.3645Z" fill="#3F3D56"/>
<path d="M390.732 26.2588H383.331C382.486 26.2588 381.803 26.9428 381.803 27.7875V35.2005C381.803 36.0451 382.486 36.7292 383.331 36.7292H390.732C391.576 36.7292 392.267 36.0451 392.267 35.2005V27.7875C392.267 26.9428 391.576 26.2588 390.732 26.2588Z" fill="#F9C332"/>
<path d="M372.595 26.2588H365.193C364.349 26.2588 363.665 26.9428 363.665 27.7875V35.2005C363.665 36.0451 364.349 36.7292 365.193 36.7292H372.595C373.439 36.7292 374.129 36.0451 374.129 35.2005V27.7875C374.129 26.9428 373.439 26.2588 372.595 26.2588Z" fill="#3F3D56"/>
<path d="M407.824 26.6082H400.422C399.578 26.6082 398.895 27.2922 398.895 28.1368V35.5499C398.895 36.3945 399.578 37.0785 400.422 37.0785H407.824C408.668 37.0785 409.359 36.3945 409.359 35.5499V28.1368C409.359 27.2922 408.668 26.6082 407.824 26.6082Z" fill="#3F3D56"/>
<path d="M296.259 29.4277H237.093C236.061 29.4277 235.23 30.2654 235.23 31.2915C235.23 32.3176 236.061 33.1552 237.093 33.1552H296.259C297.284 33.1552 298.121 32.3176 298.121 31.2915C298.121 30.2654 297.284 29.4277 296.259 29.4277Z" fill="#3F3D56"/>
</g>
<defs>
<clipPath id="clip0_1_37252">
<rect width="524" height="467" fill="white"/>
</clipPath>
</defs>
</svg>
